<svg xmlns="http://www.w3.org/2000/svg" viewBox="0 0 640 640">
<path fill="#339" fill-opacity="0.1" d="M592,256H473.3c12.7,29.6,7.1,65.2-17,89.3L320,481.6V528c0,26.5,21.5,48,48,48h224c26.5,0,48-21.5,48-48V304
	C640,277.5,618.5,256,592,256z M480,440c-13.3,0-24-10.8-24-24c0-13.3,10.8-24,24-24s24,10.7,24,24C504,429.3,493.3,440,480,440z
	 M433.6,253.3L258.7,78.4c-19.2-19.2-50.2-19.2-69.4,0L14.4,253.3c-19.2,19.2-19.2,50.2,0,69.4l174.9,174.9
	c19.2,19.2,50.2,19.2,69.4,0l174.9-174.9C452.8,303.5,452.8,272.5,433.6,253.3L433.6,253.3z M96,312c-13.3,0-24-10.8-24-24
	c0-13.3,10.8-24,24-24s24,10.7,24,24C120,301.3,109.3,312,96,312z M224,440c-13.3,0-24-10.8-24-24c0-13.3,10.8-24,24-24
	s24,10.7,24,24C248,429.3,237.3,440,224,440z M224,312c-13.3,0-24-10.8-24-24c0-13.3,10.8-24,24-24s24,10.7,24,24
	C248,301.3,237.3,312,224,312z M224,184c-13.3,0-24-10.8-24-24c0-13.3,10.8-24,24-24s24,10.7,24,24C248,173.3,237.3,184,224,184z
	 M352,312c-13.3,0-24-10.8-24-24c0-13.3,10.8-24,24-24s24,10.7,24,24C376,301.3,365.3,312,352,312z"/>
</svg>